<?xml version="1.0" standalone="no"?><!DOCTYPE svg PUBLIC "-//W3C//DTD SVG 1.1//EN" "http://www.w3.org/Graphics/SVG/1.1/DTD/svg11.dtd"><svg t="1757476349449" class="icon" viewBox="0 0 1024 1024" version="1.1" xmlns="http://www.w3.org/2000/svg" p-id="2325" xmlns:xlink="http://www.w3.org/1999/xlink" width="200" height="200"><path d="M797.098667 64C887.04 64 960 136.170667 960 225.194667V426.666667a42.666667 42.666667 0 0 1-85.226667 3.2L874.666667 426.666667v-198.101334C874.666667 184.810667 838.592 149.333333 794.069333 149.333333H229.930667C185.386667 149.333333 149.333333 184.810667 149.333333 228.565333v396.202667C149.333333 668.522667 185.408 704 229.930667 704H362.666667a42.666667 42.666667 0 0 1 3.2 85.226667L362.666667 789.333333h-135.765334C136.96 789.333333 64 717.162667 64 628.138667V225.194667C64 136.170667 136.938667 64 226.901333 64h570.197334z" fill="#171A1D" p-id="2326"></path><path d="M744.32 220.501333a42.666667 42.666667 0 0 1 50.176 68.949334l-2.837333 2.048-208.64 139.093333a128 128 0 0 1-137.365334 2.986667l-4.650666-2.986667-208.661334-139.093333a42.666667 42.666667 0 0 1 44.330667-72.832l2.986667 1.834666 208.682666 139.093334a42.666667 42.666667 0 0 0 44.181334 1.92l3.136-1.92 208.682666-139.093334zM877.738667 533.376l10.496 0.256c19.584 0.768 31.018667 3.114667 40.448 6.869333l4.586666 2.005334a77.546667 77.546667 0 0 1 36.672 34.496c0.768 1.450667 1.514667 2.901333 2.218667 4.394666l2.005333 4.586667c3.754667 9.429333 6.101333 20.864 6.869334 40.448l0.256 10.496 0.042666 5.802667v304.085333a21.333333 21.333333 0 0 1-30.869333 19.072L853.333333 917.333333h-189.269333l-5.802667-0.042666-10.496-0.256c-19.584-0.768-31.018667-3.114667-40.448-6.869334l-4.586666-2.005333a100.842667 100.842667 0 0 1-4.416-2.218667 77.546667 77.546667 0 0 1-32.256-32.256 100.842667 100.842667 0 0 1-2.218667-4.416l-2.005333-4.586666c-3.754667-9.429333-6.101333-20.864-6.869334-40.448l-0.256-10.496v-176.810667l0.256-10.496c0.768-19.584 3.114667-31.018667 6.869334-40.448l2.005333-4.586667a77.546667 77.546667 0 0 1 34.496-36.672c1.450667-0.768 2.901333-1.514667 4.394667-2.218666l4.586666-2.005334c9.429333-3.754667 20.864-6.101333 40.448-6.869333l10.496-0.256h219.477334zM876.245333 618.666667H659.754667l-7.466667 0.149333a215.04 215.04 0 0 0-3.2 0.128l-5.269333 0.362667-2.858667 0.277333-0.277333 2.858667-0.362667 5.290666-0.213333 6.72-0.064 3.925334v173.866666l0.149333 7.466667 0.128 3.2 0.362667 5.269333 0.277333 2.837334 2.858667 0.298666 5.290666 0.362667 6.72 0.213333 8.256 0.085334h209.408l22.528 11.264-0.021333-204.864-0.149333-7.466667a215.04 215.04 0 0 0-0.128-3.2l-0.362667-5.269333-0.298667-2.858667-2.837333-0.277333-5.290667-0.362667-6.72-0.213333-3.925333-0.064z" fill="#171A1D" p-id="2327"></path></svg>